<svg xmlns="http://www.w3.org/2000/svg" viewBox="0 0 1600 900" role="img" aria-label="밝은 그린 계열 그래픽 응접실 배경">
<rect width="1600" height="900" fill="#f5f1e7"/>
<rect y="690" width="1600" height="210" fill="#e7eadf"/>
<rect x="0" y="0" width="1600" height="900" fill="#edf3e8" opacity=".34"/>
<g>
  <rect x="70" y="70" width="350" height="430" rx="28" fill="#fffdf7" stroke="#d8e1d1" stroke-width="12"/>
  <line x1="245" y1="70" x2="245" y2="500" stroke="#d8e1d1" stroke-width="4"/>
  <line x1="70" y1="285" x2="420" y2="285" stroke="#d8e1d1" stroke-width="4"/>
  <circle cx="330" cy="165" r="74" fill="#fff1b8" opacity=".45"/>
</g>
<g>
  <rect x="115" y="590" width="470" height="135" rx="44" fill="#f8f7f1" stroke="#dfe6d8" stroke-width="3"/>
  <rect x="155" y="520" width="175" height="135" rx="36" fill="#fbfaf5" stroke="#e4e9df" stroke-width="3"/>
  <rect x="365" y="520" width="175" height="135" rx="36" fill="#fbfaf5" stroke="#e4e9df" stroke-width="3"/>
  <rect x="180" y="685" width="26" height="84" rx="12" fill="#aa9071"/>
  <rect x="495" y="685" width="26" height="84" rx="12" fill="#aa9071"/>
  <rect x="175" y="575" width="90" height="62" rx="20" fill="#92a97e"/>
  <rect x="445" y="575" width="90" height="62" rx="20" fill="#d9dfcf"/>
</g>
<g>
  <ellipse cx="760" cy="730" rx="160" ry="48" fill="#d8c6a5"/>
  <rect x="738" y="730" width="44" height="82" rx="12" fill="#a98e70"/>
  <ellipse cx="760" cy="700" rx="70" ry="22" fill="#f8f3e7"/>
  <rect x="742" y="650" width="36" height="52" rx="14" fill="#d6c7ad"/>
  <path d="M760 650c-20-38-26-66-18-96M760 650c22-38 42-60 63-73" stroke="#718a61" stroke-width="9" stroke-linecap="round" fill="none"/>
  <ellipse cx="741" cy="575" rx="33" ry="15" fill="#83a170" transform="rotate(-28 741 575)"/>
  <ellipse cx="807" cy="585" rx="34" ry="15" fill="#769365" transform="rotate(24 807 585)"/>
</g>
<g>
  <rect x="1200" y="210" width="320" height="520" rx="34" fill="#dce5d3"/>
  <rect x="1235" y="245" width="250" height="180" rx="22" fill="#eef2e8"/>
  <rect x="1235" y="455" width="250" height="225" rx="22" fill="#f3efe4"/>
  <rect x="1240" y="600" width="300" height="130" rx="32" fill="#d3ddca"/>
  <rect x="1260" y="620" width="260" height="24" rx="12" fill="#b99a74"/>
  <circle cx="1370" cy="180" r="44" fill="#fff7de"/>
  <line x1="1370" y1="70" x2="1370" y2="136" stroke="#a88b66" stroke-width="5"/>
</g>
<g>
  <rect x="90" y="685" width="130" height="82" rx="18" fill="#b9a184"/>
  <path d="M150 690c-4-154 20-280 70-380M150 690c18-140 65-244 132-312M150 690c-35-130-38-226-10-302" stroke="#6f8a5e" stroke-width="10" stroke-linecap="round" fill="none"/>
  <ellipse cx="205" cy="395" rx="56" ry="25" fill="#7f9b6d" transform="rotate(-28 205 395)"/>
  <ellipse cx="270" cy="375" rx="56" ry="25" fill="#6e8c5f" transform="rotate(24 270 375)"/>
  <ellipse cx="135" cy="410" rx="54" ry="24" fill="#8ca879" transform="rotate(-8 135 410)"/>
  <ellipse cx="235" cy="505" rx="58" ry="25" fill="#789666" transform="rotate(16 235 505)"/>
</g>
<g>
  <rect x="1415" y="690" width="120" height="78" rx="18" fill="#b29a7e"/>
  <path d="M1475 695c8-130-4-230-38-315M1475 695c-8-120 22-216 72-300" stroke="#6c875c" stroke-width="9" stroke-linecap="round" fill="none"/>
  <ellipse cx="1445" cy="430" rx="52" ry="23" fill="#7d9a6b" transform="rotate(20 1445 430)"/>
  <ellipse cx="1510" cy="415" rx="52" ry="23" fill="#6e8c60" transform="rotate(-20 1510 415)"/>
  <ellipse cx="1480" cy="535" rx="54" ry="24" fill="#87a476" transform="rotate(10 1480 535)"/>
</g>
<rect x="0" y="0" width="1600" height="900" fill="none" stroke="#ffffff" stroke-opacity=".45" stroke-width="14"/>
</svg>