<svg xmlns="http://www.w3.org/2000/svg" viewBox="0 0 1600 900" role="img" aria-label="밝은 그린 계열 응접실 배경"><defs><linearGradient id="wall" x1="0" y1="0" x2="1" y2="1"><stop offset="0" stop-color="#f7f5ed"/><stop offset=".55" stop-color="#edf2e7"/><stop offset="1" stop-color="#dde6d6"/></linearGradient><linearGradient id="floor" x1="0" y1="0" x2="0" y2="1"><stop offset="0" stop-color="#e8eadf"/><stop offset="1" stop-color="#d3dacb"/></linearGradient><linearGradient id="sofa" x1="0" y1="0" x2="0" y2="1"><stop offset="0" stop-color="#faf9f4"/><stop offset="1" stop-color="#e2e8dc"/></linearGradient><filter id="shadow" x="-20%" y="-20%" width="140%" height="140%"><feDropShadow dx="0" dy="18" stdDeviation="22" flood-color="#53624d" flood-opacity=".14"/></filter></defs><rect width="1600" height="900" fill="url(#wall)"/><rect y="690" width="1600" height="210" fill="url(#floor)"/><g opacity=".78"><rect x="80" y="80" width="410" height="430" rx="28" fill="#ffffff" stroke="#dce5d5" stroke-width="14"/><path d="M285 80v430M80 290h410" stroke="#d2deca" stroke-width="5"/><circle cx="390" cy="165" r="78" fill="#f8f4cf" opacity=".45"/></g><g filter="url(#shadow)"><rect x="155" y="570" width="490" height="150" rx="48" fill="url(#sofa)"/><rect x="190" y="500" width="190" height="150" rx="40" fill="url(#sofa)"/><rect x="420" y="500" width="190" height="150" rx="40" fill="url(#sofa)"/><rect x="195" y="690" width="35" height="95" rx="15" fill="#9a876e"/><rect x="570" y="690" width="35" height="95" rx="15" fill="#9a876e"/></g><g filter="url(#shadow)"><ellipse cx="800" cy="715" rx="185" ry="58" fill="#d8c8aa"/><rect x="776" y="715" width="48" height="92" rx="14" fill="#9a876e"/></g><g filter="url(#shadow)"><rect x="1140" y="530" width="330" height="190" rx="54" fill="#eef1e8"/><rect x="1180" y="485" width="120" height="125" rx="34" fill="#f7f5ee"/><rect x="1310" y="485" width="120" height="125" rx="34" fill="#f7f5ee"/></g><g opacity=".94"><path d="M116 700c5-190 45-305 90-390M165 700c-10-170 4-310 42-425M214 700c18-165 54-275 105-360" stroke="#6f895f" stroke-width="12" stroke-linecap="round"/><ellipse cx="145" cy="410" rx="58" ry="28" fill="#78966a" transform="rotate(-30 145 410)"/><ellipse cx="215" cy="350" rx="64" ry="30" fill="#6d8a5f" transform="rotate(20 215 350)"/><ellipse cx="245" cy="470" rx="64" ry="30" fill="#87a278" transform="rotate(-15 245 470)"/><ellipse cx="305" cy="400" rx="62" ry="29" fill="#729064" transform="rotate(35 305 400)"/><rect x="100" y="685" width="150" height="90" rx="18" fill="#b7a185"/></g><g opacity=".9"><path d="M1450 710c-5-170-32-280-78-370M1410 710c10-165 0-275-38-405" stroke="#67835b" stroke-width="11" stroke-linecap="round"/><ellipse cx="1385" cy="430" rx="60" ry="28" fill="#79976a" transform="rotate(-22 1385 430)"/><ellipse cx="1435" cy="360" rx="62" ry="28" fill="#6e8b60" transform="rotate(25 1435 360)"/><ellipse cx="1360" cy="535" rx="62" ry="28" fill="#88a47a" transform="rotate(18 1360 535)"/><rect x="1345" y="690" width="135" height="82" rx="18" fill="#ae9577"/></g><g opacity=".88"><rect x="1260" y="110" width="3" height="300" fill="#8b7d68"/><path d="M1190 395h145l-34-88h-77z" fill="#f6ead0"/><circle cx="1262" cy="405" r="16" fill="#fff7df"/></g><rect x="0" y="0" width="1600" height="900" fill="none" stroke="#ffffff" stroke-opacity=".35" stroke-width="18"/></svg>